<svg width="64" height="64" viewBox="0 0 64 64" fill="none" xmlns="http://www.w3.org/2000/svg">
  <rect width="64" height="64" rx="16" fill="#3B82F6"/>
  <path d="M20.5 42V22.2H28.1C30.1 22.2 31.6 22.68 32.7 23.64C33.8 24.6 34.35 25.88 34.35 27.5C34.35 29.34 33.56 30.76 31.98 31.76C33.06 32.2 33.9 32.86 34.5 33.72C35.1 34.58 35.4 35.58 35.4 36.7C35.4 38.5 34.78 39.92 33.54 40.96C32.3 42 30.62 42.52 28.5 42.52H20.5V42ZM24.96 30.2H27.46C28.3 30.2 28.94 29.98 29.38 29.54C29.84 29.08 30.06 28.48 30.06 27.74C30.06 26.1 29.24 25.28 27.6 25.28H24.96V30.2ZM24.96 39.36H28.1C29.02 39.36 29.74 39.14 30.24 38.7C30.76 38.26 31.02 37.62 31.02 36.78C31.02 35.06 30.14 34.2 28.38 34.2H24.96V39.36Z" fill="white"/>
  <path d="M38.8 42V22.2H45.4C47.98 22.2 49.92 22.94 51.22 24.42C52.52 25.9 53.18 27.9 53.18 30.42V33.3C53.18 35.86 52.5 37.9 51.14 39.42C49.78 40.94 47.78 41.7 45.14 41.7H38.8V42ZM43.26 25.3V38.92H45.14C46.62 38.92 47.72 38.5 48.44 37.66C49.18 36.82 49.56 35.58 49.56 33.94V30.92C49.56 29.24 49.2 27.96 48.48 27.08C47.78 26.2 46.7 25.74 45.24 25.7H43.26V25.3Z" fill="white"/>
</svg>
