<svg width="51" height="22" viewBox="0 0 51 22" fill="none" xmlns="http://www.w3.org/2000/svg">
<path d="M8.76083 6.22005V6.24065C9.95558 6.39514 11.1503 6.97192 11.1503 8.05338C11.1503 9.06274 10.2131 10 7.0511 10H1.44812V2.48129H7.0511C9.98648 2.48129 10.934 3.41856 10.934 4.42792C10.934 5.50938 9.92468 6.06555 8.76083 6.22005ZM6.49492 4.8296H5.06328V5.50938H6.50522C6.9069 5.50938 7.0511 5.35488 7.0511 5.15919C7.0511 4.9635 6.9069 4.8296 6.49492 4.8296ZM5.06328 7.65169H6.62881C7.12319 7.65169 7.25709 7.5178 7.25709 7.3221C7.25709 7.11611 7.11289 6.97192 6.64941 6.97192H5.06328V7.65169ZM16.6012 6.88952V4.54121H20.4018V10H18.7127L17.4252 8.26967C17.0441 9.56742 16.0451 10.206 14.5516 10.206C12.5844 10.206 11.5647 9.18633 11.5647 7.11611V4.54121H15.3653V6.82772C15.3653 7.31181 15.5301 7.4766 15.9627 7.4766C16.3952 7.4766 16.6012 7.27061 16.6012 6.88952ZM26.4346 5.33428V2.48129H30.2249V10H28.546L27.341 8.33147C26.9908 9.46442 25.9299 10.206 24.2305 10.206C22.1294 10.206 20.9861 9.06274 20.9861 7.353V7.18821C20.9861 5.47848 22.1294 4.33522 24.0554 4.33522C25.1575 4.33522 25.9608 4.69571 26.4346 5.33428ZM25.6106 7.88858C26.1977 7.88858 26.4346 7.65169 26.4346 7.27061C26.4346 6.88952 26.1977 6.65263 25.6106 6.65263C25.0236 6.65263 24.7867 6.87922 24.7867 7.27061C24.7867 7.66199 25.0236 7.88858 25.6106 7.88858ZM36.2715 5.33428V2.48129H40.0618V10H38.3829L37.1779 8.33147C36.8277 9.46442 35.7669 10.206 34.0674 10.206C31.9663 10.206 30.823 9.06274 30.823 7.353V7.18821C30.823 5.47848 31.9663 4.33522 33.8923 4.33522C34.9944 4.33522 35.7978 4.69571 36.2715 5.33428ZM35.4476 7.88858C36.0346 7.88858 36.2715 7.65169 36.2715 7.27061C36.2715 6.88952 36.0346 6.65263 35.4476 6.65263C34.8605 6.65263 34.6236 6.87922 34.6236 7.27061C34.6236 7.66199 34.8605 7.88858 35.4476 7.88858ZM44.9961 7.4972L45.7892 4.54121H49.703L47.6225 9.20693C46.747 11.1948 45.6038 12.2659 42.9568 12.2659C42.0092 12.2659 41.2985 12.1526 40.9072 12.0599V9.79401C41.2058 9.82491 41.5766 9.84551 41.8135 9.84551C42.2976 9.84551 42.4212 9.74251 42.5345 9.51592L40.145 4.54121H44.203L44.9961 7.4972Z" fill="white"/>
<path d="M0.000132812 20L2.25613 11.6H4.42813L4.62013 16.184L7.27213 11.6H9.54013L7.28413 20H5.48413L6.92413 14.624L4.76413 18.344H3.48013L3.26413 14.516L1.80013 20H0.000132812ZM11.845 20.096C11.077 20.096 10.493 19.9 10.093 19.508C9.69298 19.108 9.49298 18.496 9.49298 17.672C9.49298 17.232 9.54498 16.74 9.64898 16.196C9.75298 15.652 9.90898 15.108 10.117 14.564C10.325 14.012 10.585 13.508 10.897 13.052C11.217 12.588 11.589 12.216 12.013 11.936C12.437 11.648 12.917 11.504 13.453 11.504C14.197 11.504 14.773 11.716 15.181 12.14C15.589 12.556 15.793 13.18 15.793 14.012C15.793 14.436 15.741 14.916 15.637 15.452C15.533 15.988 15.373 16.528 15.157 17.072C14.949 17.616 14.685 18.116 14.365 18.572C14.053 19.028 13.685 19.396 13.261 19.676C12.845 19.956 12.373 20.096 11.845 20.096ZM11.905 18.416C12.129 18.416 12.341 18.308 12.541 18.092C12.741 17.868 12.925 17.58 13.093 17.228C13.269 16.876 13.417 16.5 13.537 16.1C13.665 15.7 13.761 15.312 13.825 14.936C13.897 14.56 13.933 14.244 13.933 13.988C13.933 13.452 13.737 13.184 13.345 13.184C13.105 13.184 12.881 13.3 12.673 13.532C12.473 13.756 12.289 14.048 12.121 14.408C11.961 14.768 11.821 15.152 11.701 15.56C11.589 15.968 11.501 16.36 11.437 16.736C11.381 17.104 11.353 17.404 11.353 17.636C11.353 18.156 11.537 18.416 11.905 18.416ZM18.784 11.6L18.304 17.228L20.92 11.6H22.852L18.748 20H16.444L16.852 11.6H18.784ZM21.5275 20L23.7835 11.6H25.7035L23.4475 20H21.5275ZM25.1251 20L27.3811 11.6H29.3011L29.7571 16.808L31.1611 11.6H32.9011L30.6451 20H28.7251L28.2451 14.852L26.8651 20H25.1251ZM32.8604 17.66C32.8604 17.228 32.9084 16.74 33.0044 16.196C33.1084 15.652 33.2604 15.108 33.4604 14.564C33.6684 14.012 33.9364 13.508 34.2644 13.052C34.5924 12.588 34.9804 12.216 35.4284 11.936C35.8844 11.648 36.4044 11.504 36.9884 11.504C37.8204 11.504 38.4084 11.736 38.7524 12.2C39.1044 12.656 39.2444 13.372 39.1724 14.348L37.3364 14.708C37.4004 14.164 37.3884 13.776 37.3004 13.544C37.2124 13.304 37.0284 13.184 36.7484 13.184C36.5084 13.184 36.2844 13.3 36.0764 13.532C35.8684 13.764 35.6804 14.064 35.5124 14.432C35.3524 14.8 35.2124 15.192 35.0924 15.608C34.9724 16.016 34.8804 16.404 34.8164 16.772C34.7524 17.132 34.7204 17.42 34.7204 17.636C34.7204 18.156 34.9244 18.416 35.3324 18.416C35.6204 18.416 35.8844 18.308 36.1244 18.092C36.3644 17.876 36.5844 17.524 36.7844 17.036H35.7644L36.1604 15.536H39.0284L37.8284 20H36.5684L36.6284 18.884C36.3484 19.316 36.0444 19.628 35.7164 19.82C35.3964 20.004 35.0484 20.096 34.6724 20.096C34.0484 20.096 33.5884 19.888 33.2924 19.472C33.0044 19.056 32.8604 18.452 32.8604 17.66Z" fill="url(#paint0_linear_79_4)"/>
<defs>
<linearGradient id="paint0_linear_79_4" x1="39.5361" y1="14.5" x2="4.53613" y2="18" gradientUnits="userSpaceOnUse">
<stop stop-color="#3CFF00"/>
<stop offset="1" stop-color="#FFE100"/>
</linearGradient>
</defs>
</svg>
